<svg xmlns="http://www.w3.org/2000/svg" xml:space="preserve" viewBox="0 0 30 20"><path fill="#005bbb" d="M30 18.3c0 .7-.6 1.3-1.3 1.3H1.3C.6 19.6 0 19 0 18.3V1.8C0 1.1.6.5 1.3.5h27.4c.7 0 1.3.6 1.3 1.3v16.5z"/><clipPath id="minilogoSvgPath"><path d="M30 18.3c0 .7-.6 1.3-1.3 1.3H1.3C.6 19.6 0 19 0 18.3V1.8C0 1.1.6.5 1.3.5h27.4c.7 0 1.3.6 1.3 1.3v16.5z"/></clipPath><path fill="#ffd500" d="M-1.5 10.1h8.3s5.4 2 9.4 1.8c2-.1 5.8-1.8 5.8-1.8h8.5s.4 6.7.6 10H-1.5v-10z" clip-path="url(#minilogoSvgPath)"/><path fill="#fff" d="M29.7.5C26.2 6 20.7 11.1 15 10.9c-2.1 0-4.5-.7-6.5-2.3C7 7.4 5.4 5.5 4.9 2.8h-.6c-.9 0-1.5.8-1.4 1.6 0 .2.1.4.1.6.4 2.7 2 5.7 4.7 7.6 2.1 1.5 4.6 2.5 7.4 2.5 5 0 10.3-3.2 15-11.4V1.3c-.1-.3-.2-.6-.4-.8z"/></svg>
